<svg xmlns="http://www.w3.org/2000/svg" viewBox="0 0 800 40" fill="none" stroke="currentColor" stroke-width="1.2">
  <path d="M0 20 H800" stroke-width="0.8" opacity="0.6"/>
  <g opacity="0.9">
    <path d="M80 20 C 90 8, 105 8, 115 20 C 105 32, 90 32, 80 20 Z"/>
    <path d="M280 20 C 290 8, 305 8, 315 20 C 305 32, 290 32, 280 20 Z"/>
    <path d="M485 20 C 495 8, 510 8, 520 20 C 510 32, 495 32, 485 20 Z"/>
    <path d="M685 20 C 695 8, 710 8, 720 20 C 710 32, 695 32, 685 20 Z"/>
  </g>
  <circle cx="400" cy="20" r="5" fill="currentColor" stroke="none"/>
  <circle cx="400" cy="20" r="9" opacity="0.5"/>
</svg>
