<svg xmlns="http://www.w3.org/2000/svg" viewBox="0 0 200 200" fill="none" stroke="currentColor" stroke-width="1">
  <circle cx="100" cy="100" r="90"/>
  <circle cx="100" cy="100" r="72"/>
  <circle cx="100" cy="100" r="54"/>
  <circle cx="100" cy="100" r="36"/>
  <g>
    <path d="M100 10 C 108 40, 108 60, 100 90 C 92 60, 92 40, 100 10 Z"/>
    <path d="M100 10 C 108 40, 108 60, 100 90 C 92 60, 92 40, 100 10 Z" transform="rotate(30 100 100)"/>
    <path d="M100 10 C 108 40, 108 60, 100 90 C 92 60, 92 40, 100 10 Z" transform="rotate(60 100 100)"/>
    <path d="M100 10 C 108 40, 108 60, 100 90 C 92 60, 92 40, 100 10 Z" transform="rotate(90 100 100)"/>
    <path d="M100 10 C 108 40, 108 60, 100 90 C 92 60, 92 40, 100 10 Z" transform="rotate(120 100 100)"/>
    <path d="M100 10 C 108 40, 108 60, 100 90 C 92 60, 92 40, 100 10 Z" transform="rotate(150 100 100)"/>
    <path d="M100 10 C 108 40, 108 60, 100 90 C 92 60, 92 40, 100 10 Z" transform="rotate(180 100 100)"/>
    <path d="M100 10 C 108 40, 108 60, 100 90 C 92 60, 92 40, 100 10 Z" transform="rotate(210 100 100)"/>
    <path d="M100 10 C 108 40, 108 60, 100 90 C 92 60, 92 40, 100 10 Z" transform="rotate(240 100 100)"/>
    <path d="M100 10 C 108 40, 108 60, 100 90 C 92 60, 92 40, 100 10 Z" transform="rotate(270 100 100)"/>
    <path d="M100 10 C 108 40, 108 60, 100 90 C 92 60, 92 40, 100 10 Z" transform="rotate(300 100 100)"/>
    <path d="M100 10 C 108 40, 108 60, 100 90 C 92 60, 92 40, 100 10 Z" transform="rotate(330 100 100)"/>
  </g>
  <circle cx="100" cy="100" r="4" fill="currentColor" stroke="none"/>
</svg>
