<svg xmlns="http://www.w3.org/2000/svg" viewBox="0 0 1200 320" fill="none" stroke="currentColor" stroke-width="4" stroke-linecap="round" stroke-linejoin="round">

  <!-- left mountain range -->
  <polyline points="0,225 70,120 140,190 210,80 250,120 280,175 350,105 390,140 420,200 500,150 540,190 560,235" />
  <polyline points="195,100 210,80 228,105" />
  <polyline points="335,125 350,105 365,130" />

  <!-- right mountain range -->
  <polyline points="640,235 660,190 700,150 780,200 815,165 850,110 890,145 920,170 960,85 1000,130 1060,190 1130,120 1200,225" />
  <polyline points="945,105 960,85 978,110" />
  <polyline points="850,130 850,110 870,140" />

  <!-- river -->
  <path d="M578,232 C 548,258 618,272 580,300 C 562,312 590,316 578,320" />
  <path d="M622,232 C 592,258 662,272 624,300 C 606,312 634,316 622,320" />

</svg>
